<svg width="109" height="39" viewBox="0 0 109 39" fill="none" xmlns="http://www.w3.org/2000/svg">
<rect x="0.331591" y="0.331591" width="107.859" height="37.3592" rx="5.8581" stroke="#262626" stroke-width="0.663181"/>
<path d="M23.226 15.8117C23.1079 15.9022 21.0222 17.0629 21.0222 19.6439C21.0222 22.6292 23.6761 23.6853 23.7556 23.7114C23.7434 23.7758 23.334 25.1578 22.3563 26.566C21.4846 27.8052 20.5741 29.0423 19.1891 29.0423C17.8041 29.0423 17.4476 28.2477 15.8487 28.2477C14.2906 28.2477 13.7366 29.0685 12.4697 29.0685C11.2028 29.0685 10.3188 27.9218 9.30246 26.5137C8.1252 24.8601 7.17401 22.2912 7.17401 19.8531C7.17401 15.9425 9.74852 13.8684 12.2823 13.8684C13.6286 13.8684 14.7509 14.7415 15.5962 14.7415C16.4007 14.7415 17.6554 13.8161 19.187 13.8161C19.7675 13.8161 21.8532 13.8684 23.226 15.8117ZM18.4599 12.1605C19.0933 11.4183 19.5414 10.3883 19.5414 9.35832C19.5414 9.21549 19.5292 9.07066 19.5027 8.95398C18.4721 8.9922 17.246 9.63191 16.5066 10.4788C15.9261 11.1306 15.3843 12.1605 15.3843 13.2046C15.3843 13.3615 15.4108 13.5184 15.423 13.5687C15.4882 13.5808 15.5941 13.5949 15.7 13.5949C16.6248 13.5949 17.7878 12.9833 18.4599 12.1605Z" fill="#262626"/>
<path d="M30.1 13.5265C30.0465 13.5265 30.0011 13.5078 29.9636 13.4704C29.9262 13.4329 29.9075 13.3875 29.9075 13.3341V8.11426C29.9075 8.05546 29.9262 8.00735 29.9636 7.96993C30.0011 7.93251 30.0465 7.9138 30.1 7.9138H32.0564C32.5963 7.9138 33.0399 7.99666 33.3874 8.16237C33.7402 8.32807 34.0048 8.57396 34.1812 8.90003C34.3629 9.2261 34.4565 9.62434 34.4618 10.0947C34.4725 10.3299 34.4778 10.5384 34.4778 10.7201C34.4778 10.9019 34.4725 11.1077 34.4618 11.3375C34.4511 11.8347 34.3602 12.2463 34.1892 12.5723C34.0181 12.8931 33.7589 13.1336 33.4114 13.294C33.0693 13.449 32.631 13.5265 32.0965 13.5265H30.1ZM31.022 12.6044H32.0564C32.3557 12.6044 32.5989 12.5616 32.786 12.4761C32.9731 12.3906 33.1094 12.2543 33.1949 12.0672C33.2858 11.8748 33.3339 11.6235 33.3393 11.3135C33.3446 11.1531 33.3473 11.0141 33.3473 10.8965C33.3526 10.7736 33.3526 10.6533 33.3473 10.5357C33.3473 10.4128 33.3446 10.2738 33.3393 10.1188C33.3286 9.68046 33.219 9.35707 33.0105 9.1486C32.8021 8.94012 32.4706 8.83589 32.0163 8.83589H31.022V12.6044ZM37.2932 13.6067C36.8656 13.6067 36.5048 13.5318 36.2108 13.3822C35.9221 13.2325 35.7003 13.0213 35.5453 12.7487C35.3956 12.4761 35.3101 12.1581 35.2887 11.7946C35.2833 11.6984 35.2807 11.5808 35.2807 11.4418C35.2807 11.3028 35.2833 11.1852 35.2887 11.089C35.3101 10.7201 35.3983 10.4021 35.5533 10.1348C35.7136 9.86221 35.9381 9.65106 36.2268 9.50139C36.5208 9.35172 36.8763 9.27689 37.2932 9.27689C37.7102 9.27689 38.0629 9.35172 38.3516 9.50139C38.6456 9.65106 38.8701 9.86221 39.0251 10.1348C39.1855 10.4021 39.2764 10.7201 39.2977 11.089C39.3031 11.1852 39.3058 11.3028 39.3058 11.4418C39.3058 11.5808 39.3031 11.6984 39.2977 11.7946C39.2764 12.1581 39.1882 12.4761 39.0331 12.7487C38.8835 13.0213 38.6616 13.2325 38.3676 13.3822C38.079 13.5318 37.7208 13.6067 37.2932 13.6067ZM37.2932 12.8129C37.5765 12.8129 37.7957 12.7247 37.9507 12.5483C38.1057 12.3665 38.1912 12.1019 38.2073 11.7545C38.2126 11.6743 38.2153 11.5701 38.2153 11.4418C38.2153 11.3135 38.2126 11.2093 38.2073 11.1291C38.1912 10.787 38.1057 10.525 37.9507 10.3433C37.7957 10.1616 37.5765 10.0707 37.2932 10.0707C37.0099 10.0707 36.7907 10.1616 36.6357 10.3433C36.4807 10.525 36.3952 10.787 36.3791 11.1291C36.3738 11.2093 36.3711 11.3135 36.3711 11.4418C36.3711 11.5701 36.3738 11.6743 36.3791 11.7545C36.3952 12.1019 36.4807 12.3665 36.6357 12.5483C36.7907 12.7247 37.0099 12.8129 37.2932 12.8129ZM41.2153 13.5265C41.1404 13.5265 41.0843 13.5078 41.0469 13.4704C41.0095 13.4329 40.9774 13.3848 40.9507 13.326L39.8041 9.60563C39.7987 9.5789 39.7961 9.55485 39.7961 9.53346C39.7961 9.48536 39.8121 9.44527 39.8442 9.41319C39.8816 9.37578 39.9217 9.35707 39.9644 9.35707H40.5578C40.6219 9.35707 40.6727 9.37578 40.7101 9.41319C40.7475 9.44527 40.7689 9.47734 40.7743 9.50941L41.56 12.1634L42.3939 9.53346C42.4046 9.49605 42.4287 9.45863 42.4661 9.42121C42.5035 9.37845 42.5596 9.35707 42.6345 9.35707H43.0354C43.1102 9.35707 43.1663 9.37845 43.2038 9.42121C43.2412 9.45863 43.2652 9.49605 43.2759 9.53346L44.1098 12.1634L44.8956 9.50941C44.9009 9.47734 44.9196 9.44527 44.9517 9.41319C44.9891 9.37578 45.0399 9.35707 45.104 9.35707H45.6974C45.7455 9.35707 45.7856 9.37578 45.8177 9.41319C45.8551 9.44527 45.8738 9.48536 45.8738 9.53346C45.8738 9.55485 45.8684 9.5789 45.8578 9.60563L44.7112 13.326C44.6951 13.3848 44.6657 13.4329 44.623 13.4704C44.5855 13.5078 44.5294 13.5265 44.4546 13.5265H43.9334C43.8586 13.5265 43.7998 13.5078 43.757 13.4704C43.7142 13.4329 43.6848 13.3848 43.6688 13.326L42.8349 10.7923L42.001 13.326C41.9797 13.3848 41.9476 13.4329 41.9048 13.4704C41.8674 13.5078 41.8086 13.5265 41.7284 13.5265H41.2153ZM46.8465 13.5265C46.793 13.5265 46.7476 13.5078 46.7102 13.4704C46.6728 13.4329 46.6541 13.3875 46.6541 13.3341V9.5495C46.6541 9.49605 46.6728 9.45061 46.7102 9.41319C46.7476 9.37578 46.793 9.35707 46.8465 9.35707H47.504C47.5574 9.35707 47.6029 9.37578 47.6403 9.41319C47.6777 9.45061 47.6964 9.49605 47.6964 9.5495V9.87824C47.8354 9.70719 48.0118 9.56554 48.2256 9.45328C48.4448 9.33568 48.7147 9.27689 49.0354 9.27689C49.3615 9.27689 49.6448 9.35172 49.8854 9.50139C50.1259 9.64572 50.3103 9.85152 50.4386 10.1188C50.5722 10.3861 50.6391 10.7068 50.6391 11.081V13.3341C50.6391 13.3875 50.6204 13.4329 50.5829 13.4704C50.5455 13.5078 50.5001 13.5265 50.4466 13.5265H49.741C49.6876 13.5265 49.6421 13.5078 49.6047 13.4704C49.5673 13.4329 49.5486 13.3875 49.5486 13.3341V11.1291C49.5486 10.819 49.4711 10.5758 49.3161 10.3994C49.1664 10.223 48.9472 10.1348 48.6586 10.1348C48.3806 10.1348 48.1588 10.223 47.9931 10.3994C47.8274 10.5758 47.7445 10.819 47.7445 11.1291V13.3341C47.7445 13.3875 47.7258 13.4329 47.6884 13.4704C47.651 13.5078 47.6055 13.5265 47.5521 13.5265H46.8465ZM51.858 13.5265C51.8045 13.5265 51.7591 13.5078 51.7217 13.4704C51.6843 13.4329 51.6656 13.3875 51.6656 13.3341V8.02606C51.6656 7.9726 51.6843 7.92717 51.7217 7.88975C51.7591 7.85233 51.8045 7.83362 51.858 7.83362H52.5235C52.577 7.83362 52.6224 7.85233 52.6598 7.88975C52.6972 7.92717 52.7159 7.9726 52.7159 8.02606V13.3341C52.7159 13.3875 52.6972 13.4329 52.6598 13.4704C52.6224 13.5078 52.577 13.5265 52.5235 13.5265H51.858ZM55.6237 13.6067C55.1961 13.6067 54.8353 13.5318 54.5413 13.3822C54.2526 13.2325 54.0308 13.0213 53.8757 12.7487C53.7261 12.4761 53.6406 12.1581 53.6192 11.7946C53.6138 11.6984 53.6112 11.5808 53.6112 11.4418C53.6112 11.3028 53.6138 11.1852 53.6192 11.089C53.6406 10.7201 53.7288 10.4021 53.8838 10.1348C54.0441 9.86221 54.2686 9.65106 54.5573 9.50139C54.8513 9.35172 55.2068 9.27689 55.6237 9.27689C56.0406 9.27689 56.3934 9.35172 56.6821 9.50139C56.9761 9.65106 57.2006 9.86221 57.3556 10.1348C57.516 10.4021 57.6068 10.7201 57.6282 11.089C57.6336 11.1852 57.6362 11.3028 57.6362 11.4418C57.6362 11.5808 57.6336 11.6984 57.6282 11.7946C57.6068 12.1581 57.5186 12.4761 57.3636 12.7487C57.214 13.0213 56.9921 13.2325 56.6981 13.3822C56.4095 13.5318 56.0513 13.6067 55.6237 13.6067ZM55.6237 12.8129C55.907 12.8129 56.1262 12.7247 56.2812 12.5483C56.4362 12.3665 56.5217 12.1019 56.5378 11.7545C56.5431 11.6743 56.5458 11.5701 56.5458 11.4418C56.5458 11.3135 56.5431 11.2093 56.5378 11.1291C56.5217 10.787 56.4362 10.525 56.2812 10.3433C56.1262 10.1616 55.907 10.0707 55.6237 10.0707C55.3404 10.0707 55.1212 10.1616 54.9662 10.3433C54.8112 10.525 54.7257 10.787 54.7096 11.1291C54.7043 11.2093 54.7016 11.3135 54.7016 11.4418C54.7016 11.5701 54.7043 11.6743 54.7096 11.7545C54.7257 12.1019 54.8112 12.3665 54.9662 12.5483C55.1212 12.7247 55.3404 12.8129 55.6237 12.8129ZM59.7354 13.6067C59.4574 13.6067 59.2062 13.5532 58.9817 13.4463C58.7572 13.3341 58.5781 13.1871 58.4444 13.0053C58.3162 12.8182 58.252 12.6098 58.252 12.3799C58.252 12.0057 58.4017 11.709 58.701 11.4899C59.0057 11.2654 59.4066 11.1157 59.9037 11.0409L61.0022 10.8805V10.7121C61.0022 10.4876 60.9461 10.3139 60.8338 10.191C60.7216 10.068 60.5292 10.0065 60.2565 10.0065C60.0641 10.0065 59.9064 10.0466 59.7835 10.1268C59.6659 10.2016 59.5777 10.3032 59.5189 10.4315C59.4761 10.501 59.4146 10.5357 59.3345 10.5357H58.701C58.6422 10.5357 58.5968 10.5197 58.5647 10.4876C58.538 10.4555 58.5246 10.4128 58.5246 10.3593C58.53 10.2738 58.5647 10.1696 58.6289 10.0466C58.693 9.92368 58.7946 9.80608 58.9336 9.69383C59.0725 9.57623 59.2516 9.47734 59.4708 9.39716C59.6899 9.31698 59.9545 9.27689 60.2646 9.27689C60.6013 9.27689 60.8846 9.31965 61.1145 9.40518C61.3497 9.48536 61.5368 9.59494 61.6758 9.73392C61.8147 9.8729 61.9163 10.0359 61.9804 10.223C62.0446 10.4101 62.0767 10.6079 62.0767 10.8164V13.3341C62.0767 13.3875 62.0579 13.4329 62.0205 13.4704C61.9831 13.5078 61.9377 13.5265 61.8842 13.5265H61.2348C61.176 13.5265 61.1278 13.5078 61.0904 13.4704C61.0584 13.4329 61.0423 13.3875 61.0423 13.3341V13.0213C60.9728 13.1229 60.8793 13.2191 60.7617 13.31C60.6441 13.3955 60.4998 13.4677 60.3287 13.5265C60.163 13.5799 59.9652 13.6067 59.7354 13.6067ZM60.008 12.8449C60.1951 12.8449 60.3635 12.8049 60.5131 12.7247C60.6681 12.6445 60.7884 12.5216 60.8739 12.3558C60.9648 12.1848 61.0102 11.971 61.0102 11.7144V11.546L60.2084 11.6743C59.8931 11.7224 59.6579 11.7999 59.5028 11.9068C59.3478 12.0137 59.2703 12.1447 59.2703 12.2997C59.2703 12.4173 59.3051 12.5189 59.3746 12.6044C59.4494 12.6846 59.5429 12.7461 59.6552 12.7888C59.7674 12.8262 59.885 12.8449 60.008 12.8449ZM64.6528 13.6067C64.3748 13.6067 64.1289 13.5612 63.9151 13.4704C63.7067 13.3741 63.5329 13.2405 63.3939 13.0695C63.255 12.8984 63.1481 12.698 63.0732 12.4681C62.9984 12.2329 62.9556 11.9763 62.9449 11.6984C62.9396 11.6021 62.9369 11.5166 62.9369 11.4418C62.9369 11.3616 62.9396 11.2734 62.9449 11.1772C62.9556 10.9099 62.9957 10.6613 63.0652 10.4315C63.14 10.2016 63.2469 10.0012 63.3859 9.83014C63.5303 9.65374 63.7067 9.51743 63.9151 9.42121C64.1289 9.32499 64.3748 9.27689 64.6528 9.27689C64.9414 9.27689 65.1847 9.32767 65.3824 9.42923C65.5856 9.52545 65.7539 9.65106 65.8876 9.80608V8.02606C65.8876 7.9726 65.9036 7.92717 65.9357 7.88975C65.9731 7.85233 66.0212 7.83362 66.08 7.83362H66.7616C66.815 7.83362 66.8604 7.85233 66.8979 7.88975C66.9353 7.92717 66.954 7.9726 66.954 8.02606V13.3341C66.954 13.3875 66.9353 13.4329 66.8979 13.4704C66.8604 13.5078 66.815 13.5265 66.7616 13.5265H66.1281C66.0693 13.5265 66.0212 13.5078 65.9838 13.4704C65.9517 13.4329 65.9357 13.3875 65.9357 13.3341V13.0374C65.8021 13.2031 65.631 13.3394 65.4225 13.4463C65.2194 13.5532 64.9628 13.6067 64.6528 13.6067ZM64.9495 12.7487C65.174 12.7487 65.353 12.698 65.4867 12.5964C65.6203 12.4948 65.7192 12.3665 65.7833 12.2115C65.8475 12.0512 65.8822 11.8881 65.8876 11.7224C65.8929 11.6262 65.8956 11.5246 65.8956 11.4177C65.8956 11.3055 65.8929 11.2012 65.8876 11.105C65.8822 10.9447 65.8448 10.7923 65.7753 10.648C65.7058 10.4983 65.6043 10.3754 65.4706 10.2792C65.337 10.1829 65.1633 10.1348 64.9495 10.1348C64.725 10.1348 64.5459 10.1856 64.4122 10.2872C64.284 10.3834 64.1904 10.5117 64.1316 10.672C64.0728 10.8324 64.0381 11.0088 64.0274 11.2012C64.022 11.3616 64.022 11.522 64.0274 11.6823C64.0381 11.8748 64.0728 12.0512 64.1316 12.2115C64.1904 12.3719 64.284 12.5028 64.4122 12.6044C64.5459 12.7006 64.725 12.7487 64.9495 12.7487ZM71.6991 13.6067C71.2715 13.6067 70.9106 13.5318 70.6166 13.3822C70.328 13.2325 70.1062 13.0213 69.9511 12.7487C69.8015 12.4761 69.7159 12.1581 69.6946 11.7946C69.6892 11.6984 69.6865 11.5808 69.6865 11.4418C69.6865 11.3028 69.6892 11.1852 69.6946 11.089C69.7159 10.7201 69.8041 10.4021 69.9592 10.1348C70.1195 9.86221 70.344 9.65106 70.6327 9.50139C70.9267 9.35172 71.2821 9.27689 71.6991 9.27689C72.116 9.27689 72.4688 9.35172 72.7575 9.50139C73.0515 9.65106 73.276 9.86221 73.431 10.1348C73.5914 10.4021 73.6822 10.7201 73.7036 11.089C73.709 11.1852 73.7116 11.3028 73.7116 11.4418C73.7116 11.5808 73.709 11.6984 73.7036 11.7946C73.6822 12.1581 73.594 12.4761 73.439 12.7487C73.2894 13.0213 73.0675 13.2325 72.7735 13.3822C72.4849 13.5318 72.1267 13.6067 71.6991 13.6067ZM71.6991 12.8129C71.9824 12.8129 72.2016 12.7247 72.3566 12.5483C72.5116 12.3665 72.5971 12.1019 72.6132 11.7545C72.6185 11.6743 72.6212 11.5701 72.6212 11.4418C72.6212 11.3135 72.6185 11.2093 72.6132 11.1291C72.5971 10.787 72.5116 10.525 72.3566 10.3433C72.2016 10.1616 71.9824 10.0707 71.6991 10.0707C71.4158 10.0707 71.1966 10.1616 71.0416 10.3433C70.8866 10.525 70.8011 10.787 70.785 11.1291C70.7797 11.2093 70.777 11.3135 70.777 11.4418C70.777 11.5701 70.7797 11.6743 70.785 11.7545C70.8011 12.1019 70.8866 12.3665 71.0416 12.5483C71.1966 12.7247 71.4158 12.8129 71.6991 12.8129ZM74.7925 13.5265C74.739 13.5265 74.6936 13.5078 74.6561 13.4704C74.6187 13.4329 74.6 13.3875 74.6 13.3341V9.5495C74.6 9.49605 74.6187 9.45061 74.6561 9.41319C74.6936 9.37578 74.739 9.35707 74.7925 9.35707H75.4499C75.5034 9.35707 75.5488 9.37578 75.5862 9.41319C75.6237 9.45061 75.6424 9.49605 75.6424 9.5495V9.87824C75.7814 9.70719 75.9578 9.56554 76.1716 9.45328C76.3907 9.33568 76.6607 9.27689 76.9814 9.27689C77.3075 9.27689 77.5908 9.35172 77.8313 9.50139C78.0719 9.64572 78.2563 9.85152 78.3846 10.1188C78.5182 10.3861 78.585 10.7068 78.585 11.081V13.3341C78.585 13.3875 78.5663 13.4329 78.5289 13.4704C78.4915 13.5078 78.446 13.5265 78.3926 13.5265H77.687C77.6335 13.5265 77.5881 13.5078 77.5507 13.4704C77.5133 13.4329 77.4946 13.3875 77.4946 13.3341V11.1291C77.4946 10.819 77.4171 10.5758 77.262 10.3994C77.1124 10.223 76.8932 10.1348 76.6045 10.1348C76.3266 10.1348 76.1048 10.223 75.939 10.3994C75.7733 10.5758 75.6905 10.819 75.6905 11.1291V13.3341C75.6905 13.3875 75.6718 13.4329 75.6344 13.4704C75.5969 13.5078 75.5515 13.5265 75.498 13.5265H74.7925ZM83.1556 13.5265C82.8349 13.5265 82.5649 13.4704 82.3458 13.3581C82.1266 13.2459 81.9636 13.0801 81.8567 12.861C81.7498 12.6365 81.6963 12.3585 81.6963 12.0271V10.207H81.0629C81.0094 10.207 80.964 10.1883 80.9266 10.1509C80.8892 10.1134 80.8704 10.068 80.8704 10.0146V9.5495C80.8704 9.49605 80.8892 9.45061 80.9266 9.41319C80.964 9.37578 81.0094 9.35707 81.0629 9.35707H81.6963V8.02606C81.6963 7.9726 81.7123 7.92717 81.7444 7.88975C81.7818 7.85233 81.8299 7.83362 81.8887 7.83362H82.5382C82.5917 7.83362 82.6371 7.85233 82.6745 7.88975C82.7119 7.92717 82.7306 7.9726 82.7306 8.02606V9.35707H83.7329C83.7864 9.35707 83.8318 9.37578 83.8692 9.41319C83.9066 9.45061 83.9253 9.49605 83.9253 9.5495V10.0146C83.9253 10.068 83.9066 10.1134 83.8692 10.1509C83.8318 10.1883 83.7864 10.207 83.7329 10.207H82.7306V11.9469C82.7306 12.1661 82.7681 12.3371 82.8429 12.4601C82.9231 12.583 83.0594 12.6445 83.2518 12.6445H83.8051C83.8585 12.6445 83.904 12.6632 83.9414 12.7006C83.9788 12.738 83.9975 12.7835 83.9975 12.8369V13.3341C83.9975 13.3875 83.9788 13.4329 83.9414 13.4704C83.904 13.5078 83.8585 13.5265 83.8051 13.5265H83.1556ZM84.9093 13.5265C84.8558 13.5265 84.8104 13.5078 84.7729 13.4704C84.7355 13.4329 84.7168 13.3875 84.7168 13.3341V8.02606C84.7168 7.9726 84.7355 7.92717 84.7729 7.88975C84.8104 7.85233 84.8558 7.83362 84.9093 7.83362H85.6229C85.6817 7.83362 85.7271 7.85233 85.7592 7.88975C85.7966 7.92717 85.8153 7.9726 85.8153 8.02606V9.85419C85.9596 9.68314 86.136 9.54416 86.3445 9.43725C86.553 9.33034 86.8096 9.27689 87.1142 9.27689C87.4403 9.27689 87.7236 9.35172 87.9642 9.50139C88.21 9.64572 88.3998 9.85152 88.5334 10.1188C88.6671 10.3861 88.7339 10.7068 88.7339 11.081V13.3341C88.7339 13.3875 88.7152 13.4329 88.6778 13.4704C88.6404 13.5078 88.5949 13.5265 88.5415 13.5265H87.8198C87.7664 13.5265 87.7209 13.5078 87.6835 13.4704C87.6461 13.4329 87.6274 13.3875 87.6274 13.3341V11.1291C87.6274 10.819 87.5499 10.5758 87.3949 10.3994C87.2452 10.223 87.026 10.1348 86.7374 10.1348C86.4594 10.1348 86.2349 10.223 86.0639 10.3994C85.8982 10.5758 85.8153 10.819 85.8153 11.1291V13.3341C85.8153 13.3875 85.7966 13.4329 85.7592 13.4704C85.7271 13.5078 85.6817 13.5265 85.6229 13.5265H84.9093ZM91.5475 13.6067C90.9542 13.6067 90.4838 13.4356 90.1363 13.0935C89.7889 12.7514 89.6018 12.265 89.5751 11.6342C89.5697 11.5808 89.567 11.5139 89.567 11.4338C89.567 11.3482 89.5697 11.2814 89.5751 11.2333C89.5964 10.8324 89.6873 10.4849 89.8477 10.191C90.0134 9.89695 90.2406 9.67245 90.5292 9.51743C90.8179 9.35707 91.1573 9.27689 91.5475 9.27689C91.9805 9.27689 92.344 9.36776 92.638 9.5495C92.932 9.7259 93.1538 9.97446 93.3035 10.2952C93.4532 10.6106 93.528 10.9767 93.528 11.3937V11.562C93.528 11.6155 93.5093 11.6609 93.4719 11.6984C93.4344 11.7358 93.3863 11.7545 93.3275 11.7545H90.6655C90.6655 11.7545 90.6655 11.7625 90.6655 11.7785C90.6655 11.7946 90.6655 11.8079 90.6655 11.8186C90.6709 12.0057 90.7056 12.1794 90.7698 12.3398C90.8392 12.4948 90.9381 12.6204 91.0664 12.7167C91.2001 12.8129 91.3577 12.861 91.5395 12.861C91.6892 12.861 91.8148 12.8396 91.9163 12.7968C92.0179 12.7487 92.1008 12.6953 92.1649 12.6365C92.2291 12.5777 92.2745 12.5296 92.3012 12.4922C92.3493 12.428 92.3867 12.3906 92.4135 12.3799C92.4455 12.3639 92.491 12.3558 92.5498 12.3558H93.2393C93.2928 12.3558 93.3356 12.3719 93.3676 12.404C93.405 12.436 93.4211 12.4761 93.4157 12.5242C93.4104 12.6098 93.365 12.714 93.2794 12.8369C93.1992 12.9599 93.0816 13.0801 92.9266 13.1977C92.7716 13.3153 92.5765 13.4142 92.3413 13.4944C92.1115 13.5693 91.8469 13.6067 91.5475 13.6067ZM90.6655 11.081H92.4375V11.0569C92.4375 10.8484 92.4028 10.6667 92.3333 10.5117C92.2638 10.3567 92.1622 10.2337 92.0286 10.1428C91.895 10.052 91.7346 10.0065 91.5475 10.0065C91.3604 10.0065 91.2001 10.052 91.0664 10.1428C90.9328 10.2337 90.8312 10.3567 90.7617 10.5117C90.6976 10.6667 90.6655 10.8484 90.6655 11.0569V11.081Z" fill="#262626"/>
<path d="M29.8769 28.3794C29.7863 28.3794 29.7013 28.3454 29.622 28.2774C29.554 28.2095 29.52 28.1245 29.52 28.0225C29.52 27.9772 29.5313 27.9262 29.554 27.8696L33.6495 16.9086C33.6835 16.7953 33.7458 16.699 33.8365 16.6197C33.9384 16.529 34.0744 16.4837 34.2443 16.4837H36.0966C36.2666 16.4837 36.3969 16.529 36.4875 16.6197C36.5781 16.699 36.6461 16.7953 36.6914 16.9086L40.7869 27.8696C40.7983 27.9262 40.8039 27.9772 40.8039 28.0225C40.8039 28.1245 40.7699 28.2095 40.702 28.2774C40.634 28.3454 40.5547 28.3794 40.4641 28.3794H38.9856C38.827 28.3794 38.708 28.3454 38.6287 28.2774C38.5607 28.1981 38.5154 28.1245 38.4928 28.0565L37.6941 25.9833H32.6469L31.8482 28.0565C31.8255 28.1245 31.7745 28.1981 31.6952 28.2774C31.6273 28.3454 31.514 28.3794 31.3554 28.3794H29.8769ZM33.2417 24.029H37.0993L35.162 18.7779L33.2417 24.029ZM41.4218 31.6082C41.3085 31.6082 41.2122 31.5686 41.1329 31.4893C41.0536 31.41 41.014 31.3137 41.014 31.2004V19.9504C41.014 19.8372 41.0536 19.7409 41.1329 19.6616C41.2122 19.5822 41.3085 19.5426 41.4218 19.5426H42.7643C42.8889 19.5426 42.9852 19.5822 43.0532 19.6616C43.1325 19.7409 43.1722 19.8372 43.1722 19.9504V20.6302C43.4441 20.2677 43.801 19.9674 44.2428 19.7295C44.6846 19.4916 45.2341 19.3727 45.8912 19.3727C46.4916 19.3727 47.0128 19.469 47.4546 19.6616C47.8965 19.8542 48.2647 20.1317 48.5592 20.4943C48.8538 20.8455 49.0804 21.2646 49.239 21.7518C49.3976 22.239 49.4882 22.7771 49.5109 23.3662C49.5222 23.5588 49.5279 23.7571 49.5279 23.961C49.5279 24.1649 49.5222 24.3688 49.5109 24.5728C49.4996 25.1392 49.4146 25.666 49.256 26.1532C49.0974 26.629 48.8651 27.0482 48.5592 27.4107C48.2647 27.762 47.8965 28.0395 47.4546 28.2434C47.0128 28.4474 46.4916 28.5493 45.8912 28.5493C45.2794 28.5493 44.7583 28.4417 44.3278 28.2264C43.8973 27.9999 43.546 27.7053 43.2741 27.3428V31.2004C43.2741 31.3137 43.2345 31.41 43.1552 31.4893C43.0872 31.5686 42.9909 31.6082 42.8663 31.6082H41.4218ZM45.2624 26.731C45.7496 26.731 46.1291 26.629 46.401 26.4251C46.6729 26.2098 46.8655 25.9323 46.9788 25.5924C47.1034 25.2525 47.1771 24.8787 47.1997 24.4708C47.2224 24.1309 47.2224 23.7911 47.1997 23.4512C47.1771 23.0433 47.1034 22.6695 46.9788 22.3296C46.8655 21.9897 46.6729 21.7178 46.401 21.5139C46.1291 21.2986 45.7496 21.191 45.2624 21.191C44.7979 21.191 44.4184 21.2986 44.1238 21.5139C43.8406 21.7291 43.631 22.0067 43.4951 22.3466C43.3704 22.6751 43.2968 23.015 43.2741 23.3662C43.2628 23.5701 43.2571 23.7854 43.2571 24.012C43.2571 24.2386 43.2628 24.4595 43.2741 24.6747C43.2855 25.0146 43.3648 25.3432 43.5121 25.6604C43.6593 25.9663 43.8746 26.2212 44.1578 26.4251C44.4411 26.629 44.8093 26.731 45.2624 26.731ZM50.6708 31.6082C50.5576 31.6082 50.4613 31.5686 50.3819 31.4893C50.3026 31.41 50.263 31.3137 50.263 31.2004V19.9504C50.263 19.8372 50.3026 19.7409 50.3819 19.6616C50.4613 19.5822 50.5576 19.5426 50.6708 19.5426H52.0134C52.138 19.5426 52.2343 19.5822 52.3023 19.6616C52.3816 19.7409 52.4212 19.8372 52.4212 19.9504V20.6302C52.6931 20.2677 53.05 19.9674 53.4918 19.7295C53.9337 19.4916 54.4831 19.3727 55.1402 19.3727C55.7407 19.3727 56.2618 19.469 56.7037 19.6616C57.1455 19.8542 57.5137 20.1317 57.8083 20.4943C58.1028 20.8455 58.3294 21.2646 58.488 21.7518C58.6466 22.239 58.7373 22.7771 58.7599 23.3662C58.7712 23.5588 58.7769 23.7571 58.7769 23.961C58.7769 24.1649 58.7712 24.3688 58.7599 24.5728C58.7486 25.1392 58.6636 25.666 58.505 26.1532C58.3464 26.629 58.1141 27.0482 57.8083 27.4107C57.5137 27.762 57.1455 28.0395 56.7037 28.2434C56.2618 28.4474 55.7407 28.5493 55.1402 28.5493C54.5284 28.5493 54.0073 28.4417 53.5768 28.2264C53.1463 27.9999 52.7951 27.7053 52.5232 27.3428V31.2004C52.5232 31.3137 52.4835 31.41 52.4042 31.4893C52.3362 31.5686 52.2399 31.6082 52.1153 31.6082H50.6708ZM54.5115 26.731C54.9986 26.731 55.3781 26.629 55.65 26.4251C55.9219 26.2098 56.1145 25.9323 56.2278 25.5924C56.3525 25.2525 56.4261 24.8787 56.4488 24.4708C56.4714 24.1309 56.4714 23.7911 56.4488 23.4512C56.4261 23.0433 56.3525 22.6695 56.2278 22.3296C56.1145 21.9897 55.9219 21.7178 55.65 21.5139C55.3781 21.2986 54.9986 21.191 54.5115 21.191C54.047 21.191 53.6674 21.2986 53.3729 21.5139C53.0896 21.7291 52.88 22.0067 52.7441 22.3466C52.6195 22.6751 52.5458 23.015 52.5232 23.3662C52.5118 23.5701 52.5062 23.7854 52.5062 24.012C52.5062 24.2386 52.5118 24.4595 52.5232 24.6747C52.5345 25.0146 52.6138 25.3432 52.7611 25.6604C52.9084 25.9663 53.1236 26.2212 53.4069 26.4251C53.6901 26.629 54.0583 26.731 54.5115 26.731ZM66.5222 28.5493C65.4686 28.5493 64.5849 28.3964 63.8712 28.0905C63.1688 27.7733 62.6307 27.3654 62.2568 26.8669C61.8943 26.3571 61.7017 25.8247 61.679 25.2695C61.679 25.1676 61.713 25.0826 61.781 25.0146C61.8489 24.9466 61.9339 24.9127 62.0359 24.9127H63.5483C63.6956 24.9127 63.8032 24.9466 63.8712 25.0146C63.9505 25.0713 64.0185 25.1449 64.0751 25.2355C64.1431 25.4508 64.2734 25.666 64.466 25.8813C64.6586 26.0852 64.9192 26.2552 65.2477 26.3911C65.5876 26.5271 66.0124 26.595 66.5222 26.595C67.338 26.595 67.9441 26.4591 68.3406 26.1872C68.7484 25.9153 68.9524 25.5471 68.9524 25.0826C68.9524 24.754 68.8447 24.4935 68.6295 24.3009C68.4142 24.0969 68.08 23.9157 67.6268 23.7571C67.185 23.5871 66.5959 23.4115 65.8595 23.2303C65.0098 23.0263 64.2961 22.7828 63.7183 22.4995C63.1518 22.205 62.7213 21.8368 62.4267 21.3949C62.1435 20.9531 62.0019 20.3923 62.0019 19.7125C62.0019 19.0554 62.1775 18.472 62.5287 17.9622C62.8912 17.4524 63.401 17.0502 64.0581 16.7556C64.7266 16.461 65.5196 16.3138 66.4373 16.3138C67.1737 16.3138 67.8251 16.4157 68.3916 16.6197C68.958 16.8123 69.4282 17.0728 69.8021 17.4014C70.1759 17.7186 70.4592 18.0641 70.6518 18.438C70.8557 18.8005 70.9633 19.1574 70.9746 19.5086C70.9746 19.5992 70.9406 19.6842 70.8727 19.7635C70.816 19.8315 70.7311 19.8655 70.6178 19.8655H69.0373C68.9467 19.8655 68.8561 19.8428 68.7654 19.7975C68.6748 19.7522 68.6012 19.6672 68.5445 19.5426C68.4765 19.1914 68.2556 18.8912 67.8818 18.6419C67.5079 18.3927 67.0264 18.2681 66.4373 18.2681C65.8255 18.2681 65.3327 18.3814 64.9588 18.6079C64.5849 18.8345 64.398 19.1857 64.398 19.6616C64.398 19.9788 64.4887 20.245 64.6699 20.4603C64.8625 20.6642 65.1627 20.8455 65.5706 21.0041C65.9898 21.1627 66.5392 21.3326 67.219 21.5139C68.182 21.7291 68.9694 21.9784 69.5811 22.2616C70.1929 22.5448 70.6404 22.9074 70.9237 23.3492C71.2069 23.7797 71.3485 24.3292 71.3485 24.9976C71.3485 25.7453 71.1446 26.3855 70.7367 26.9179C70.3402 27.4391 69.7794 27.8413 69.0543 28.1245C68.3293 28.4077 67.4852 28.5493 66.5222 28.5493ZM75.8961 28.3794C75.2163 28.3794 74.6442 28.2604 74.1797 28.0225C73.7152 27.7846 73.3697 27.4334 73.1431 26.9689C72.9165 26.4931 72.8032 25.904 72.8032 25.2015V21.3439H71.4607C71.3474 21.3439 71.2511 21.3043 71.1718 21.225C71.0925 21.1457 71.0528 21.0494 71.0528 20.9361V19.9504C71.0528 19.8372 71.0925 19.7409 71.1718 19.6616C71.2511 19.5822 71.3474 19.5426 71.4607 19.5426H72.8032V16.7216C72.8032 16.6083 72.8372 16.512 72.9052 16.4327C72.9845 16.3534 73.0864 16.3138 73.2111 16.3138H74.5876C74.7008 16.3138 74.7971 16.3534 74.8764 16.4327C74.9558 16.512 74.9954 16.6083 74.9954 16.7216V19.5426H77.1196C77.2329 19.5426 77.3292 19.5822 77.4085 19.6616C77.4878 19.7409 77.5275 19.8372 77.5275 19.9504V20.9361C77.5275 21.0494 77.4878 21.1457 77.4085 21.225C77.3292 21.3043 77.2329 21.3439 77.1196 21.3439H74.9954V25.0316C74.9954 25.4961 75.0747 25.8586 75.2333 26.1192C75.4033 26.3798 75.6922 26.5101 76.1 26.5101H77.2726C77.3859 26.5101 77.4822 26.5497 77.5615 26.629C77.6408 26.7083 77.6804 26.8046 77.6804 26.9179V27.9715C77.6804 28.0848 77.6408 28.1811 77.5615 28.2604C77.4822 28.3397 77.3859 28.3794 77.2726 28.3794H75.8961ZM81.907 28.5493C81.0006 28.5493 80.2359 28.3907 79.6128 28.0735C79.001 27.7563 78.5309 27.3088 78.2023 26.731C77.8851 26.1532 77.7038 25.4791 77.6585 24.7087C77.6472 24.5048 77.6415 24.2556 77.6415 23.961C77.6415 23.6664 77.6472 23.4172 77.6585 23.2133C77.7038 22.4315 77.8908 21.7575 78.2193 21.191C78.5592 20.6132 79.035 20.1657 79.6468 19.8485C80.2699 19.5313 81.0233 19.3727 81.907 19.3727C82.7907 19.3727 83.5384 19.5313 84.1502 19.8485C84.7733 20.1657 85.2491 20.6132 85.5777 21.191C85.9175 21.7575 86.1101 22.4315 86.1554 23.2133C86.1668 23.4172 86.1724 23.6664 86.1724 23.961C86.1724 24.2556 86.1668 24.5048 86.1554 24.7087C86.1101 25.4791 85.9232 26.1532 85.5946 26.731C85.2774 27.3088 84.8073 27.7563 84.1842 28.0735C83.5724 28.3907 82.8133 28.5493 81.907 28.5493ZM81.907 26.8669C82.5074 26.8669 82.9719 26.68 83.3005 26.3061C83.629 25.921 83.8103 25.3602 83.8443 24.6238C83.8556 24.4538 83.8613 24.2329 83.8613 23.961C83.8613 23.6891 83.8556 23.4682 83.8443 23.2982C83.8103 22.5732 83.629 22.018 83.3005 21.6328C82.9719 21.2476 82.5074 21.055 81.907 21.055C81.3065 21.055 80.842 21.2476 80.5135 21.6328C80.1849 22.018 80.0037 22.5732 79.9697 23.2982C79.9584 23.4682 79.9527 23.6891 79.9527 23.961C79.9527 24.2329 79.9584 24.4538 79.9697 24.6238C80.0037 25.3602 80.1849 25.921 80.5135 26.3061C80.842 26.68 81.3065 26.8669 81.907 26.8669ZM87.2736 28.3794C87.1603 28.3794 87.064 28.3397 86.9847 28.2604C86.9054 28.1811 86.8657 28.0848 86.8657 27.9715V19.9674C86.8657 19.8428 86.9054 19.7409 86.9847 19.6616C87.064 19.5822 87.1603 19.5426 87.2736 19.5426H88.6501C88.7634 19.5426 88.8597 19.5822 88.939 19.6616C89.0296 19.7409 89.0749 19.8428 89.0749 19.9674V20.6642C89.3355 20.3017 89.6697 20.0241 90.0776 19.8315C90.4968 19.6389 90.9782 19.5426 91.522 19.5426H92.2188C92.3434 19.5426 92.4397 19.5822 92.5077 19.6616C92.587 19.7409 92.6266 19.8372 92.6266 19.9504V21.174C92.6266 21.2873 92.587 21.3836 92.5077 21.4629C92.4397 21.5422 92.3434 21.5819 92.2188 21.5819H90.8933C90.3495 21.5819 89.9246 21.7348 89.6187 22.0407C89.3242 22.3466 89.1769 22.7658 89.1769 23.2982V27.9715C89.1769 28.0848 89.1372 28.1811 89.0579 28.2604C88.9786 28.3397 88.8767 28.3794 88.7521 28.3794H87.2736ZM96.4529 28.5493C95.1954 28.5493 94.1984 28.1868 93.462 27.4617C92.7256 26.7367 92.3291 25.7057 92.2724 24.3688C92.2611 24.2556 92.2554 24.1139 92.2554 23.944C92.2554 23.7627 92.2611 23.6211 92.2724 23.5192C92.3177 22.6695 92.5103 21.9331 92.8502 21.31C93.2014 20.6868 93.6829 20.211 94.2947 19.8825C94.9065 19.5426 95.6259 19.3727 96.4529 19.3727C97.3706 19.3727 98.141 19.5653 98.7641 19.9504C99.3872 20.3243 99.8574 20.8511 100.175 21.5309C100.492 22.1993 100.65 22.9754 100.65 23.859V24.2159C100.65 24.3292 100.611 24.4255 100.531 24.5048C100.452 24.5841 100.35 24.6238 100.226 24.6238H94.5836C94.5836 24.6238 94.5836 24.6407 94.5836 24.6747C94.5836 24.7087 94.5836 24.737 94.5836 24.7597C94.5949 25.1562 94.6686 25.5244 94.8045 25.8643C94.9518 26.1929 95.1614 26.4591 95.4333 26.663C95.7165 26.8669 96.0507 26.9689 96.4359 26.9689C96.7531 26.9689 97.0194 26.9236 97.2346 26.833C97.4499 26.731 97.6255 26.6177 97.7614 26.4931C97.8974 26.3685 97.9937 26.2665 98.0503 26.1872C98.1523 26.0512 98.2316 25.9719 98.2883 25.9493C98.3562 25.9153 98.4525 25.8983 98.5771 25.8983H100.039C100.152 25.8983 100.243 25.9323 100.311 26.0003C100.39 26.0682 100.424 26.1532 100.412 26.2552C100.401 26.4364 100.305 26.6574 100.124 26.9179C99.9536 27.1785 99.7044 27.4334 99.3759 27.6826C99.0473 27.9319 98.6338 28.1415 98.1353 28.3114C97.6482 28.47 97.0874 28.5493 96.4529 28.5493ZM94.5836 23.1963H98.3392V23.1453C98.3392 22.7035 98.2656 22.3183 98.1183 21.9897C97.971 21.6612 97.7558 21.4006 97.4725 21.208C97.1893 21.0154 96.8494 20.9191 96.4529 20.9191C96.0564 20.9191 95.7165 21.0154 95.4333 21.208C95.1501 21.4006 94.9348 21.6612 94.7875 21.9897C94.6516 22.3183 94.5836 22.7035 94.5836 23.1453V23.1963Z" fill="#262626"/>
</svg>
