<svg width="177" height="177" viewBox="0 0 177 177" fill="none" xmlns="http://www.w3.org/2000/svg">
<path d="M0 36C0 16.1177 16.1177 0 36 0H141C160.882 0 177 16.1177 177 36V141C177 160.882 160.882 177 141 177H36C16.1177 177 0 160.882 0 141V36Z" fill="#006A8F"/>
<path d="M105.499 36.4999C122.29 44.399 146.064 72.9999 147.734 93.3199C149.181 110.922 132.379 124.205 116.088 126.458C141.166 100.186 110.175 63.7008 99.1131 52.1808C92.9018 45.7122 91.6938 41.141 91.6075 38.9847C90.8172 32.5798 99.0574 33.4698 105.499 36.4999Z" fill="#FAFAFA" fill-opacity="0.69"/>
<path d="M54.2243 50.817C69.5787 60.3256 80.5642 87.3492 85.3409 103.471C88.4974 114.124 105.642 113.323 105.642 101.082C105.642 90.9522 88.9234 44.6572 67.7267 34.8053C64.6143 34.5469 57.727 34.1233 55.1877 37.7907C52.5004 41.6718 54.2239 48.4915 54.2243 50.817Z" fill="#FAFAFA" fill-opacity="0.69"/>
<path d="M59.9634 127.354L55.993 59.2859V50.0309C55.993 41.0745 60.9682 34.8052 67.7271 34.8052C48.0232 26.1474 30.7053 32.1183 31.0038 54.2106C31.3024 76.3029 35.4823 117.005 36.0793 127.354C36.975 142.878 59.9634 142.878 59.9634 127.354Z" fill="#FAFAFA"/>
<path d="M85.5179 124.667C133.704 127.155 147.734 105.262 147.734 93.3201C148.63 104.068 147.437 114.858 141.466 124.667C131.649 140.796 112.463 150.973 85.5179 144.714C68.6213 140.789 63.7876 123.545 85.5179 124.667Z" fill="#FAFAFA"/>
</svg>
