<svg width="124" height="39" viewBox="0 0 124 39" fill="none" xmlns="http://www.w3.org/2000/svg">
<rect x="0.331591" y="0.331591" width="123.337" height="37.3592" rx="5.8581" stroke="#262626" stroke-width="0.663181"/>
<path d="M22.0161 22.383C24.5618 20.9601 26.5086 19.876 26.675 19.7914C27.2074 19.5034 27.7565 18.7411 26.675 18.1483C26.3256 17.962 24.4453 16.9117 22.0161 15.5566L18.6716 18.9783L22.0161 22.383Z" fill="#FFD400"/>
<path d="M18.6716 18.9783L7.98938 29.9377C8.23896 29.9716 8.52183 29.9038 8.85461 29.7175C9.55344 29.3279 16.9744 25.1948 22.016 22.383L18.6716 18.9783Z" fill="#FF3333"/>
<path d="M18.6716 18.9782L22.0161 15.5566C22.0161 15.5566 9.6034 8.66247 8.85464 8.25594C8.57178 8.08655 8.25564 8.03573 7.97278 8.08655L18.6716 18.9782Z" fill="#48FF48"/>
<path d="M18.6716 18.9782L7.97274 8.08655C7.54013 8.18818 7.17407 8.57778 7.17407 9.3739C7.17407 10.6443 7.17407 27.5832 7.17407 28.6503C7.17407 29.3787 7.45693 29.9038 7.98938 29.9546L18.6716 18.9782Z" fill="#3BCCFF"/>
<path d="M35.6296 13.6067C35.1378 13.6067 34.7182 13.5211 34.3707 13.3501C34.0286 13.179 33.7614 12.9331 33.5689 12.6124C33.3818 12.2864 33.2803 11.8988 33.2642 11.4498C33.2589 11.2199 33.2562 10.9741 33.2562 10.7121C33.2562 10.4449 33.2589 10.1936 33.2642 9.95843C33.2803 9.51476 33.3818 9.13523 33.5689 8.81985C33.7614 8.50447 34.0313 8.26126 34.3788 8.0902C34.7316 7.91915 35.1485 7.83362 35.6296 7.83362C36.0198 7.83362 36.3619 7.88708 36.6559 7.99399C36.9499 8.09555 37.1931 8.22918 37.3856 8.39489C37.5833 8.55525 37.7303 8.72898 37.8265 8.91607C37.9281 9.10316 37.9816 9.27689 37.9869 9.43725C37.9923 9.48536 37.9789 9.52545 37.9468 9.55752C37.9147 9.58959 37.872 9.60563 37.8185 9.60563H36.9927C36.9392 9.60563 36.8991 9.59494 36.8724 9.57356C36.8457 9.55217 36.8216 9.5201 36.8002 9.47734C36.7575 9.36508 36.6906 9.2555 36.5998 9.1486C36.5089 9.03634 36.386 8.9428 36.2309 8.86796C36.0759 8.79313 35.8755 8.75571 35.6296 8.75571C35.2661 8.75571 34.9748 8.85192 34.7556 9.04436C34.5418 9.23679 34.4269 9.55485 34.4108 9.99852C34.3948 10.4636 34.3948 10.934 34.4108 11.4097C34.4269 11.8641 34.5445 12.1901 34.7636 12.3879C34.9881 12.5857 35.2821 12.6846 35.6456 12.6846C35.8862 12.6846 36.1 12.6418 36.2871 12.5563C36.4795 12.4708 36.6292 12.3371 36.7361 12.1554C36.8483 11.9736 36.9045 11.7411 36.9045 11.4578V11.2093H35.9263C35.8728 11.2093 35.8274 11.1905 35.7899 11.1531C35.7525 11.1157 35.7338 11.0676 35.7338 11.0088V10.5838C35.7338 10.525 35.7525 10.4769 35.7899 10.4395C35.8274 10.4021 35.8728 10.3834 35.9263 10.3834H37.8426C37.9014 10.3834 37.9468 10.4021 37.9789 10.4395C38.0163 10.4769 38.035 10.525 38.035 10.5838V11.4257C38.035 11.8748 37.9361 12.2623 37.7384 12.5884C37.5459 12.9144 37.268 13.1657 36.9045 13.3421C36.5463 13.5185 36.1214 13.6067 35.6296 13.6067ZM40.7627 13.6067C40.1694 13.6067 39.699 13.4356 39.3516 13.0935C39.0041 12.7514 38.817 12.265 38.7903 11.6342C38.7849 11.5808 38.7823 11.5139 38.7823 11.4338C38.7823 11.3482 38.7849 11.2814 38.7903 11.2333C38.8117 10.8324 38.9025 10.4849 39.0629 10.191C39.2286 9.89695 39.4558 9.67245 39.7444 9.51743C40.0331 9.35707 40.3725 9.27689 40.7627 9.27689C41.1957 9.27689 41.5592 9.36776 41.8532 9.5495C42.1472 9.7259 42.369 9.97446 42.5187 10.2952C42.6684 10.6106 42.7432 10.9767 42.7432 11.3937V11.562C42.7432 11.6155 42.7245 11.6609 42.6871 11.6984C42.6497 11.7358 42.6016 11.7545 42.5428 11.7545H39.8808C39.8808 11.7545 39.8808 11.7625 39.8808 11.7785C39.8808 11.7946 39.8808 11.8079 39.8808 11.8186C39.8861 12.0057 39.9208 12.1794 39.985 12.3398C40.0545 12.4948 40.1534 12.6204 40.2817 12.7167C40.4153 12.8129 40.573 12.861 40.7547 12.861C40.9044 12.861 41.03 12.8396 41.1316 12.7968C41.2331 12.7487 41.316 12.6953 41.3801 12.6365C41.4443 12.5777 41.4897 12.5296 41.5165 12.4922C41.5646 12.428 41.602 12.3906 41.6287 12.3799C41.6608 12.3639 41.7062 12.3558 41.765 12.3558H42.4546C42.508 12.3558 42.5508 12.3719 42.5829 12.404C42.6203 12.436 42.6363 12.4761 42.631 12.5242C42.6256 12.6098 42.5802 12.714 42.4947 12.8369C42.4145 12.9599 42.2969 13.0801 42.1419 13.1977C41.9868 13.3153 41.7917 13.4142 41.5565 13.4944C41.3267 13.5693 41.0621 13.6067 40.7627 13.6067ZM39.8808 11.081H41.6528V11.0569C41.6528 10.8484 41.618 10.6667 41.5485 10.5117C41.479 10.3567 41.3775 10.2337 41.2438 10.1428C41.1102 10.052 40.9498 10.0065 40.7627 10.0065C40.5757 10.0065 40.4153 10.052 40.2817 10.1428C40.148 10.2337 40.0465 10.3567 39.977 10.5117C39.9128 10.6667 39.8808 10.8484 39.8808 11.0569V11.081ZM45.4629 13.5265C45.1422 13.5265 44.8723 13.4704 44.6531 13.3581C44.4339 13.2459 44.2709 13.0801 44.164 12.861C44.0571 12.6365 44.0036 12.3585 44.0036 12.0271V10.207H43.3702C43.3167 10.207 43.2713 10.1883 43.2339 10.1509C43.1965 10.1134 43.1778 10.068 43.1778 10.0146V9.5495C43.1778 9.49605 43.1965 9.45061 43.2339 9.41319C43.2713 9.37578 43.3167 9.35707 43.3702 9.35707H44.0036V8.02606C44.0036 7.9726 44.0197 7.92717 44.0517 7.88975C44.0892 7.85233 44.1373 7.83362 44.1961 7.83362H44.8455C44.899 7.83362 44.9444 7.85233 44.9818 7.88975C45.0193 7.92717 45.038 7.9726 45.038 8.02606V9.35707H46.0402C46.0937 9.35707 46.1391 9.37578 46.1765 9.41319C46.214 9.45061 46.2327 9.49605 46.2327 9.5495V10.0146C46.2327 10.068 46.214 10.1134 46.1765 10.1509C46.1391 10.1883 46.0937 10.207 46.0402 10.207H45.038V11.9469C45.038 12.1661 45.0754 12.3371 45.1502 12.4601C45.2304 12.583 45.3667 12.6445 45.5592 12.6445H46.1124C46.1659 12.6445 46.2113 12.6632 46.2487 12.7006C46.2861 12.738 46.3048 12.7835 46.3048 12.8369V13.3341C46.3048 13.3875 46.2861 13.4329 46.2487 13.4704C46.2113 13.5078 46.1659 13.5265 46.1124 13.5265H45.4629ZM49.0408 13.5265C48.9874 13.5265 48.9419 13.5078 48.9045 13.4704C48.8671 13.4329 48.8484 13.3875 48.8484 13.3341V9.5495C48.8484 9.49605 48.8671 9.45061 48.9045 9.41319C48.9419 9.37578 48.9874 9.35707 49.0408 9.35707H49.7063C49.7651 9.35707 49.8106 9.37578 49.8426 9.41319C49.8801 9.45061 49.8988 9.49605 49.8988 9.5495V13.3341C49.8988 13.3875 49.8801 13.4329 49.8426 13.4704C49.8106 13.5078 49.7651 13.5265 49.7063 13.5265H49.0408ZM49.0088 8.66751C48.95 8.66751 48.9019 8.65147 48.8644 8.6194C48.8324 8.58198 48.8163 8.53387 48.8163 8.47507V7.89777C48.8163 7.84431 48.8324 7.79888 48.8644 7.76146C48.9019 7.72404 48.95 7.70533 49.0088 7.70533H49.7384C49.7972 7.70533 49.8453 7.72404 49.8827 7.76146C49.9202 7.79888 49.9389 7.84431 49.9389 7.89777V8.47507C49.9389 8.53387 49.9202 8.58198 49.8827 8.6194C49.8453 8.65147 49.7972 8.66751 49.7384 8.66751H49.0088ZM52.8468 13.5265C52.5261 13.5265 52.2561 13.4704 52.037 13.3581C51.8178 13.2459 51.6548 13.0801 51.5479 12.861C51.441 12.6365 51.3875 12.3585 51.3875 12.0271V10.207H50.7541C50.7006 10.207 50.6552 10.1883 50.6178 10.1509C50.5804 10.1134 50.5616 10.068 50.5616 10.0146V9.5495C50.5616 9.49605 50.5804 9.45061 50.6178 9.41319C50.6552 9.37578 50.7006 9.35707 50.7541 9.35707H51.3875V8.02606C51.3875 7.9726 51.4035 7.92717 51.4356 7.88975C51.473 7.85233 51.5211 7.83362 51.5799 7.83362H52.2294C52.2829 7.83362 52.3283 7.85233 52.3657 7.88975C52.4031 7.92717 52.4218 7.9726 52.4218 8.02606V9.35707H53.4241C53.4776 9.35707 53.523 9.37578 53.5604 9.41319C53.5978 9.45061 53.6165 9.49605 53.6165 9.5495V10.0146C53.6165 10.068 53.5978 10.1134 53.5604 10.1509C53.523 10.1883 53.4776 10.207 53.4241 10.207H52.4218V11.9469C52.4218 12.1661 52.4593 12.3371 52.5341 12.4601C52.6143 12.583 52.7506 12.6445 52.943 12.6445H53.4963C53.5497 12.6445 53.5952 12.6632 53.6326 12.7006C53.67 12.738 53.6887 12.7835 53.6887 12.8369V13.3341C53.6887 13.3875 53.67 13.4329 53.6326 13.4704C53.5952 13.5078 53.5497 13.5265 53.4963 13.5265H52.8468ZM58.0764 13.6067C57.6488 13.6067 57.288 13.5318 56.994 13.3822C56.7053 13.2325 56.4835 13.0213 56.3285 12.7487C56.1788 12.4761 56.0933 12.1581 56.0719 11.7946C56.0666 11.6984 56.0639 11.5808 56.0639 11.4418C56.0639 11.3028 56.0666 11.1852 56.0719 11.089C56.0933 10.7201 56.1815 10.4021 56.3365 10.1348C56.4969 9.86221 56.7214 9.65106 57.01 9.50139C57.304 9.35172 57.6595 9.27689 58.0764 9.27689C58.4934 9.27689 58.8462 9.35172 59.1348 9.50139C59.4288 9.65106 59.6533 9.86221 59.8084 10.1348C59.9687 10.4021 60.0596 10.7201 60.081 11.089C60.0863 11.1852 60.089 11.3028 60.089 11.4418C60.089 11.5808 60.0863 11.6984 60.081 11.7946C60.0596 12.1581 59.9714 12.4761 59.8164 12.7487C59.6667 13.0213 59.4449 13.2325 59.1509 13.3822C58.8622 13.5318 58.5041 13.6067 58.0764 13.6067ZM58.0764 12.8129C58.3597 12.8129 58.5789 12.7247 58.7339 12.5483C58.8889 12.3665 58.9745 12.1019 58.9905 11.7545C58.9959 11.6743 58.9985 11.5701 58.9985 11.4418C58.9985 11.3135 58.9959 11.2093 58.9905 11.1291C58.9745 10.787 58.8889 10.525 58.7339 10.3433C58.5789 10.1616 58.3597 10.0707 58.0764 10.0707C57.7931 10.0707 57.574 10.1616 57.419 10.3433C57.2639 10.525 57.1784 10.787 57.1624 11.1291C57.157 11.2093 57.1544 11.3135 57.1544 11.4418C57.1544 11.5701 57.157 11.6743 57.1624 11.7545C57.1784 12.1019 57.2639 12.3665 57.419 12.5483C57.574 12.7247 57.7931 12.8129 58.0764 12.8129ZM61.1698 13.5265C61.1164 13.5265 61.0709 13.5078 61.0335 13.4704C60.9961 13.4329 60.9774 13.3875 60.9774 13.3341V9.5495C60.9774 9.49605 60.9961 9.45061 61.0335 9.41319C61.0709 9.37578 61.1164 9.35707 61.1698 9.35707H61.8273C61.8807 9.35707 61.9262 9.37578 61.9636 9.41319C62.001 9.45061 62.0197 9.49605 62.0197 9.5495V9.87824C62.1587 9.70719 62.3351 9.56554 62.5489 9.45328C62.7681 9.33568 63.038 9.27689 63.3588 9.27689C63.6848 9.27689 63.9681 9.35172 64.2087 9.50139C64.4492 9.64572 64.6336 9.85152 64.7619 10.1188C64.8956 10.3861 64.9624 10.7068 64.9624 11.081V13.3341C64.9624 13.3875 64.9437 13.4329 64.9062 13.4704C64.8688 13.5078 64.8234 13.5265 64.7699 13.5265H64.0643C64.0109 13.5265 63.9655 13.5078 63.928 13.4704C63.8906 13.4329 63.8719 13.3875 63.8719 13.3341V11.1291C63.8719 10.819 63.7944 10.5758 63.6394 10.3994C63.4897 10.223 63.2706 10.1348 62.9819 10.1348C62.7039 10.1348 62.4821 10.223 62.3164 10.3994C62.1507 10.5758 62.0678 10.819 62.0678 11.1291V13.3341C62.0678 13.3875 62.0491 13.4329 62.0117 13.4704C61.9743 13.5078 61.9289 13.5265 61.8754 13.5265H61.1698Z" fill="#262626"/>
<path d="M38.7711 28.5493C37.7288 28.5493 36.8395 28.3681 36.1031 28.0055C35.378 27.643 34.8115 27.1219 34.4037 26.4421C34.0071 25.751 33.7919 24.9296 33.7579 23.978C33.7466 23.4908 33.7409 22.9697 33.7409 22.4146C33.7409 21.8481 33.7466 21.3156 33.7579 20.8171C33.7919 19.8768 34.0071 19.0724 34.4037 18.404C34.8115 17.7356 35.3836 17.2201 36.12 16.8576C36.8678 16.495 37.7515 16.3138 38.7711 16.3138C39.5981 16.3138 40.3232 16.4271 40.9463 16.6536C41.5694 16.8689 42.0849 17.1521 42.4927 17.5033C42.9119 17.8432 43.2235 18.2114 43.4274 18.6079C43.6427 19.0045 43.7559 19.3727 43.7673 19.7125C43.7786 19.8145 43.7503 19.8995 43.6823 19.9674C43.6143 20.0354 43.5237 20.0694 43.4104 20.0694H41.66C41.5467 20.0694 41.4618 20.0467 41.4051 20.0014C41.3485 19.9561 41.2975 19.8881 41.2522 19.7975C41.1616 19.5596 41.0199 19.3273 40.8273 19.1008C40.6347 18.8628 40.3742 18.6646 40.0456 18.506C39.7171 18.3474 39.2922 18.2681 38.7711 18.2681C38.0007 18.2681 37.3833 18.472 36.9188 18.8798C36.4656 19.2877 36.222 19.9618 36.188 20.9021C36.154 21.8877 36.154 22.8847 36.188 23.893C36.222 24.856 36.4713 25.5471 36.9358 25.9663C37.4116 26.3855 38.0347 26.595 38.8051 26.595C39.3149 26.595 39.7681 26.5044 40.1646 26.3231C40.5724 26.1419 40.8897 25.8586 41.1162 25.4734C41.3542 25.0883 41.4731 24.5954 41.4731 23.995V23.4682H39.3999C39.2866 23.4682 39.1903 23.4285 39.111 23.3492C39.0317 23.2699 38.992 23.1679 38.992 23.0433V22.1427C38.992 22.018 39.0317 21.9161 39.111 21.8368C39.1903 21.7575 39.2866 21.7178 39.3999 21.7178H43.4614C43.586 21.7178 43.6823 21.7575 43.7503 21.8368C43.8296 21.9161 43.8692 22.018 43.8692 22.1427V23.927C43.8692 24.8787 43.6596 25.7 43.2405 26.3911C42.8326 27.0822 42.2435 27.6147 41.4731 27.9885C40.714 28.3624 39.8134 28.5493 38.7711 28.5493ZM48.5629 28.5493C47.6565 28.5493 46.8918 28.3907 46.2687 28.0735C45.6569 27.7563 45.1867 27.3088 44.8582 26.731C44.541 26.1532 44.3597 25.4791 44.3144 24.7087C44.3031 24.5048 44.2974 24.2556 44.2974 23.961C44.2974 23.6664 44.3031 23.4172 44.3144 23.2133C44.3597 22.4315 44.5466 21.7575 44.8752 21.191C45.2151 20.6132 45.6909 20.1657 46.3027 19.8485C46.9258 19.5313 47.6792 19.3727 48.5629 19.3727C49.4465 19.3727 50.1943 19.5313 50.806 19.8485C51.4292 20.1657 51.905 20.6132 52.2335 21.191C52.5734 21.7575 52.766 22.4315 52.8113 23.2133C52.8226 23.4172 52.8283 23.6664 52.8283 23.961C52.8283 24.2556 52.8226 24.5048 52.8113 24.7087C52.766 25.4791 52.5791 26.1532 52.2505 26.731C51.9333 27.3088 51.4631 27.7563 50.84 28.0735C50.2283 28.3907 49.4692 28.5493 48.5629 28.5493ZM48.5629 26.8669C49.1633 26.8669 49.6278 26.68 49.9564 26.3061C50.2849 25.921 50.4662 25.3602 50.5002 24.6238C50.5115 24.4538 50.5172 24.2329 50.5172 23.961C50.5172 23.6891 50.5115 23.4682 50.5002 23.2982C50.4662 22.5732 50.2849 22.018 49.9564 21.6328C49.6278 21.2476 49.1633 21.055 48.5629 21.055C47.9624 21.055 47.4979 21.2476 47.1694 21.6328C46.8408 22.018 46.6595 22.5732 46.6256 23.2982C46.6142 23.4682 46.6086 23.6891 46.6086 23.961C46.6086 24.2329 46.6142 24.4538 46.6256 24.6238C46.6595 25.3602 46.8408 25.921 47.1694 26.3061C47.4979 26.68 47.9624 26.8669 48.5629 26.8669ZM57.4302 28.5493C56.5239 28.5493 55.7591 28.3907 55.136 28.0735C54.5242 27.7563 54.0541 27.3088 53.7255 26.731C53.4083 26.1532 53.227 25.4791 53.1817 24.7087C53.1704 24.5048 53.1647 24.2556 53.1647 23.961C53.1647 23.6664 53.1704 23.4172 53.1817 23.2133C53.227 22.4315 53.414 21.7575 53.7425 21.191C54.0824 20.6132 54.5582 20.1657 55.17 19.8485C55.7931 19.5313 56.5465 19.3727 57.4302 19.3727C58.3139 19.3727 59.0616 19.5313 59.6734 19.8485C60.2965 20.1657 60.7723 20.6132 61.1009 21.191C61.4407 21.7575 61.6333 22.4315 61.6787 23.2133C61.69 23.4172 61.6956 23.6664 61.6956 23.961C61.6956 24.2556 61.69 24.5048 61.6787 24.7087C61.6333 25.4791 61.4464 26.1532 61.1179 26.731C60.8006 27.3088 60.3305 27.7563 59.7074 28.0735C59.0956 28.3907 58.3365 28.5493 57.4302 28.5493ZM57.4302 26.8669C58.0306 26.8669 58.4951 26.68 58.8237 26.3061C59.1522 25.921 59.3335 25.3602 59.3675 24.6238C59.3788 24.4538 59.3845 24.2329 59.3845 23.961C59.3845 23.6891 59.3788 23.4682 59.3675 23.2982C59.3335 22.5732 59.1522 22.018 58.8237 21.6328C58.4951 21.2476 58.0306 21.055 57.4302 21.055C56.8297 21.055 56.3652 21.2476 56.0367 21.6328C55.7081 22.018 55.5269 22.5732 55.4929 23.2982C55.4816 23.4682 55.4759 23.6891 55.4759 23.961C55.4759 24.2329 55.4816 24.4538 55.4929 24.6238C55.5269 25.3602 55.7081 25.921 56.0367 26.3061C56.3652 26.68 56.8297 26.8669 57.4302 26.8669ZM66.3825 32.118C65.5555 32.118 64.8757 32.0104 64.3432 31.7952C63.8108 31.5799 63.3916 31.3193 63.0857 31.0134C62.7798 30.7076 62.5589 30.4017 62.4229 30.0958C62.2983 29.8012 62.2303 29.569 62.219 29.399C62.2077 29.2857 62.2417 29.1838 62.321 29.0931C62.4116 29.0138 62.5136 28.9742 62.6269 28.9742H64.1053C64.2186 28.9742 64.3092 28.9968 64.3772 29.0422C64.4452 29.0988 64.5018 29.1951 64.5472 29.331C64.6151 29.4783 64.7058 29.6369 64.8191 29.8069C64.9324 29.9768 65.1023 30.1184 65.3289 30.2317C65.5668 30.3563 65.8897 30.4187 66.2975 30.4187C66.728 30.4187 67.0906 30.3563 67.3851 30.2317C67.6797 30.1071 67.9006 29.8975 68.0479 29.603C68.2065 29.3084 68.2858 28.9005 68.2858 28.3794V27.2238C68.0139 27.5524 67.6627 27.8186 67.2322 28.0225C66.813 28.2264 66.2919 28.3284 65.6688 28.3284C65.057 28.3284 64.5302 28.2321 64.0883 28.0395C63.6465 27.8356 63.2783 27.558 62.9837 27.2068C62.6892 26.8443 62.4626 26.4194 62.304 25.9323C62.1567 25.4451 62.0717 24.907 62.0491 24.3179C62.0377 24.012 62.0377 23.7061 62.0491 23.4002C62.0717 22.8337 62.1567 22.3069 62.304 21.8198C62.4513 21.3326 62.6722 20.9078 62.9667 20.5452C63.2726 20.1714 63.6465 19.8825 64.0883 19.6785C64.5302 19.4746 65.057 19.3727 65.6688 19.3727C66.3145 19.3727 66.8583 19.4973 67.3002 19.7465C67.742 19.9844 68.1045 20.2847 68.3878 20.6472V19.9674C68.3878 19.8428 68.4274 19.7409 68.5067 19.6616C68.586 19.5822 68.6823 19.5426 68.7956 19.5426H70.1721C70.2854 19.5426 70.3817 19.5822 70.461 19.6616C70.5403 19.7409 70.58 19.8428 70.58 19.9674L70.597 28.1585C70.597 28.9742 70.444 29.6766 70.1381 30.2657C69.8322 30.8548 69.3677 31.308 68.7446 31.6252C68.1329 31.9538 67.3455 32.118 66.3825 32.118ZM66.2975 26.5271C66.762 26.5271 67.1359 26.4251 67.4191 26.2212C67.7023 26.0173 67.9119 25.751 68.0479 25.4225C68.1838 25.0939 68.2631 24.7597 68.2858 24.4198C68.2971 24.2725 68.3028 24.0856 68.3028 23.859C68.3028 23.6324 68.2971 23.4512 68.2858 23.3152C68.2631 22.964 68.1838 22.6298 68.0479 22.3126C67.9119 21.984 67.7023 21.7178 67.4191 21.5139C67.1359 21.2986 66.762 21.191 66.2975 21.191C65.833 21.191 65.4592 21.2986 65.1759 21.5139C64.8927 21.7178 64.6888 21.9897 64.5642 22.3296C64.4509 22.6695 64.3829 23.0433 64.3602 23.4512C64.3376 23.7231 64.3376 24.0006 64.3602 24.2839C64.3829 24.6804 64.4509 25.0543 64.5642 25.4055C64.6888 25.7453 64.8927 26.0173 65.1759 26.2212C65.4592 26.4251 65.833 26.5271 66.2975 26.5271ZM72.096 28.3794C71.9827 28.3794 71.8864 28.3397 71.8071 28.2604C71.7278 28.1811 71.6882 28.0848 71.6882 27.9715V16.7216C71.6882 16.6083 71.7278 16.512 71.8071 16.4327C71.8864 16.3534 71.9827 16.3138 72.096 16.3138H73.5065C73.6198 16.3138 73.7161 16.3534 73.7954 16.4327C73.8747 16.512 73.9143 16.6083 73.9143 16.7216V27.9715C73.9143 28.0848 73.8747 28.1811 73.7954 28.2604C73.7161 28.3397 73.6198 28.3794 73.5065 28.3794H72.096ZM78.7856 28.5493C77.5281 28.5493 76.5311 28.1868 75.7947 27.4617C75.0583 26.7367 74.6618 25.7057 74.6051 24.3688C74.5938 24.2556 74.5881 24.1139 74.5881 23.944C74.5881 23.7627 74.5938 23.6211 74.6051 23.5192C74.6504 22.6695 74.843 21.9331 75.1829 21.31C75.5341 20.6868 76.0156 20.211 76.6274 19.8825C77.2392 19.5426 77.9586 19.3727 78.7856 19.3727C79.7033 19.3727 80.4737 19.5653 81.0968 19.9504C81.7199 20.3243 82.19 20.8511 82.5073 21.5309C82.8245 22.1993 82.9831 22.9754 82.9831 23.859V24.2159C82.9831 24.3292 82.9434 24.4255 82.8641 24.5048C82.7848 24.5841 82.6829 24.6238 82.5582 24.6238H76.9163C76.9163 24.6238 76.9163 24.6407 76.9163 24.6747C76.9163 24.7087 76.9163 24.737 76.9163 24.7597C76.9276 25.1562 77.0013 25.5244 77.1372 25.8643C77.2845 26.1929 77.4941 26.4591 77.766 26.663C78.0492 26.8669 78.3834 26.9689 78.7686 26.9689C79.0858 26.9689 79.3521 26.9236 79.5673 26.833C79.7826 26.731 79.9582 26.6177 80.0941 26.4931C80.2301 26.3685 80.3264 26.2665 80.383 26.1872C80.485 26.0512 80.5643 25.9719 80.6209 25.9493C80.6889 25.9153 80.7852 25.8983 80.9098 25.8983H82.3713C82.4846 25.8983 82.5752 25.9323 82.6432 26.0003C82.7225 26.0682 82.7565 26.1532 82.7452 26.2552C82.7338 26.4364 82.6375 26.6574 82.4563 26.9179C82.2863 27.1785 82.0371 27.4334 81.7086 27.6826C81.38 27.9319 80.9665 28.1415 80.468 28.3114C79.9808 28.47 79.42 28.5493 78.7856 28.5493ZM76.9163 23.1963H80.6719V23.1453C80.6719 22.7035 80.5983 22.3183 80.451 21.9897C80.3037 21.6612 80.0885 21.4006 79.8052 21.208C79.522 21.0154 79.1821 20.9191 78.7856 20.9191C78.3891 20.9191 78.0492 21.0154 77.766 21.208C77.4827 21.4006 77.2675 21.6612 77.1202 21.9897C76.9843 22.3183 76.9163 22.7035 76.9163 23.1453V23.1963ZM86.903 28.3794C86.7897 28.3794 86.6934 28.3397 86.6141 28.2604C86.5348 28.1811 86.4951 28.0848 86.4951 27.9715V16.9086C86.4951 16.7839 86.5348 16.682 86.6141 16.6027C86.6934 16.5234 86.7897 16.4837 86.903 16.4837H91.4573C92.341 16.4837 93.1114 16.6253 93.7685 16.9086C94.4256 17.1805 94.9354 17.5996 95.2979 18.1661C95.6604 18.7212 95.8417 19.418 95.8417 20.2563C95.8417 21.106 95.6604 21.8084 95.2979 22.3636C94.9354 22.9074 94.4256 23.3152 93.7685 23.5871C93.1114 23.859 92.341 23.995 91.4573 23.995H88.9252V27.9715C88.9252 28.0848 88.8856 28.1811 88.8063 28.2604C88.7383 28.3397 88.642 28.3794 88.5174 28.3794H86.903ZM88.8912 22.1087H91.3723C92.0294 22.1087 92.5336 21.9557 92.8848 21.6498C93.236 21.3326 93.4116 20.8681 93.4116 20.2563C93.4116 19.6899 93.2473 19.2367 92.9188 18.8968C92.5902 18.5456 92.0747 18.37 91.3723 18.37H88.8912V22.1087ZM96.7285 28.3794C96.6152 28.3794 96.5189 28.3397 96.4396 28.2604C96.3603 28.1811 96.3206 28.0848 96.3206 27.9715V16.7216C96.3206 16.6083 96.3603 16.512 96.4396 16.4327C96.5189 16.3534 96.6152 16.3138 96.7285 16.3138H98.1389C98.2522 16.3138 98.3485 16.3534 98.4278 16.4327C98.5071 16.512 98.5468 16.6083 98.5468 16.7216V27.9715C98.5468 28.0848 98.5071 28.1811 98.4278 28.2604C98.3485 28.3397 98.2522 28.3794 98.1389 28.3794H96.7285ZM102.178 28.5493C101.588 28.5493 101.056 28.436 100.58 28.2095C100.104 27.9715 99.7247 27.66 99.4415 27.2748C99.1696 26.8783 99.0336 26.4364 99.0336 25.9493C99.0336 25.1562 99.3509 24.5275 99.9853 24.063C100.631 23.5871 101.481 23.2699 102.534 23.1113L104.863 22.7714V22.4146C104.863 21.9387 104.744 21.5705 104.506 21.31C104.268 21.0494 103.86 20.9191 103.282 20.9191C102.874 20.9191 102.54 21.0041 102.279 21.174C102.03 21.3326 101.843 21.5479 101.719 21.8198C101.628 21.9671 101.498 22.0407 101.328 22.0407H99.9853C99.8607 22.0407 99.7644 22.0067 99.6964 21.9387C99.6398 21.8708 99.6114 21.7801 99.6114 21.6668C99.6228 21.4856 99.6964 21.2646 99.8324 21.0041C99.9683 20.7435 100.184 20.4943 100.478 20.2563C100.773 20.0071 101.152 19.7975 101.617 19.6276C102.081 19.4576 102.642 19.3727 103.299 19.3727C104.013 19.3727 104.613 19.4633 105.1 19.6446C105.599 19.8145 105.995 20.0467 106.29 20.3413C106.585 20.6359 106.8 20.9814 106.936 21.3779C107.072 21.7745 107.14 22.1936 107.14 22.6355V27.9715C107.14 28.0848 107.1 28.1811 107.021 28.2604C106.941 28.3397 106.845 28.3794 106.732 28.3794H105.355C105.231 28.3794 105.129 28.3397 105.049 28.2604C104.981 28.1811 104.947 28.0848 104.947 27.9715V27.3088C104.8 27.524 104.602 27.728 104.353 27.9206C104.103 28.1018 103.798 28.2548 103.435 28.3794C103.084 28.4927 102.665 28.5493 102.178 28.5493ZM102.755 26.9349C103.152 26.9349 103.509 26.8499 103.826 26.68C104.154 26.5101 104.409 26.2495 104.591 25.8983C104.783 25.5358 104.88 25.0826 104.88 24.5388V24.1819L103.18 24.4538C102.512 24.5558 102.013 24.7201 101.685 24.9466C101.356 25.1732 101.192 25.4508 101.192 25.7793C101.192 26.0286 101.265 26.2438 101.413 26.4251C101.571 26.595 101.77 26.7253 102.008 26.816C102.245 26.8953 102.495 26.9349 102.755 26.9349ZM109.495 31.6082C109.405 31.6082 109.325 31.5742 109.257 31.5063C109.189 31.4383 109.155 31.359 109.155 31.2683C109.155 31.223 109.155 31.1777 109.155 31.1324C109.167 31.0984 109.189 31.0531 109.223 30.9964L110.549 27.8526L107.286 20.1544C107.241 20.0411 107.218 19.9618 107.218 19.9165C107.229 19.8145 107.269 19.7295 107.337 19.6616C107.405 19.5822 107.49 19.5426 107.592 19.5426H108.969C109.104 19.5426 109.206 19.5766 109.274 19.6446C109.342 19.7125 109.393 19.7862 109.427 19.8655L111.688 25.4225L114.016 19.8655C114.05 19.7748 114.101 19.7012 114.169 19.6446C114.237 19.5766 114.339 19.5426 114.475 19.5426H115.834C115.925 19.5426 116.004 19.5766 116.072 19.6446C116.151 19.7125 116.191 19.7918 116.191 19.8825C116.191 19.9504 116.168 20.0411 116.123 20.1544L111.314 31.2853C111.268 31.376 111.212 31.4496 111.144 31.5063C111.076 31.5742 110.974 31.6082 110.838 31.6082H109.495Z" fill="#262626"/>
</svg>
