<svg width="866" height="593" viewBox="0 0 866 593" fill="none" xmlns="http://www.w3.org/2000/svg">
<path d="M314.5 193C270.1 193 254 195.667 251.5 197L216 270.5L399 274.5C406.333 262.667 423.8 235 431 225C432 223.611 434.441 219 434 216C432 202.4 413 200.371 405 199C393.333 197 335 193 314.5 193Z" fill="#211313"/>
<path d="M699 280L85.5 266.5C85.6666 273 86 289.5 86 303.5C86 320.5 70 338 61 338C53 338 51.6666 345.333 52 349V378C309.5 381 827.4 387 839 387C850.6 387 852 380.5 852 373V283L699 280Z" fill="#211313"/>
<path d="M286 6.84668C262.4 -5.55332 240.833 1.68001 233 6.84668L543 276.847L845 283.347L851.5 279.847C871.5 267.447 865.5 257.347 861.5 252.847L861.252 252.567C856.961 247.736 835.117 223.14 800.5 191.847C738 135.347 719 123.347 645 108.847C571 94.3467 514 80.8467 445 62.3467C376 43.8467 315.5 22.3467 286 6.84668Z" fill="#211313"/>
<path d="M508.5 79L415 166L430 179L532 84.5L508.5 79Z" fill="#5B5D5C"/>
<path d="M581.5 96L462 206L498 237.5L639 107.5L581.5 96Z" fill="#5B5D5C"/>
<path d="M304 68.5L194.5 269L217 269.5L310 73.5L304 68.5Z" fill="#272526"/>
<path d="M698 280L85.5 266.5V280H309V372H325V280H698Z" fill="#595D5C"/>
<path d="M358 372V272.5L373 272.84V372H358Z" fill="#262626"/>
<ellipse cx="416.5" cy="559.5" rx="416.5" ry="33.5" fill="#8E8E8E" fill-opacity="0.4"/>
<path d="M187 380L104 379C104 379 125.5 391 125.5 409H128.5V570H164V409H168C168 393.8 180.667 383.333 187 380Z" fill="#211313"/>
<path d="M500 383L424 382.5C424 382.5 445.5 388.5 445.5 412H448V543H479V412H482C482 397.6 494 386.667 500 383Z" fill="#211313"/>
<path d="M774 386.5L698 385.5C698 385.5 721.5 393.5 721.5 424H723.5V568H752V424H754.5C754.5 401.6 767.5 389.667 774 386.5Z" fill="#262626"/>
<path d="M699 372V280L750 281V372H699Z" fill="#262626"/>
<path d="M749 372V281L852 283V372H749Z" fill="#5B5D5C"/>
<path d="M52 372V378C309.167 381 826.5 387 838.5 387C850.5 387 852 381 852 372H52Z" fill="#444645"/>
</svg>
